<svg width="2024" height="773" fill="none" xmlns="http://www.w3.org/2000/svg"><path d="m1611.16 706.43.04-.316c1.96-15.941-8.01-26.427-20.68-26.427-12.97 0-24.99 10.007-27.01 26.427l-.04.316c-1.96 15.941 7.71 26.427 20.52 26.427 12.67 0 25.23-10.64 27.17-26.427Zm-66.76 0 .04-.316c3.36-27.361 23.86-42.839 43.56-42.839 13.61 0 21.38 6.721 26.36 14.544l1.57-12.823h18.92l-10.13 82.552h-18.92l1.68-13.757c-7.15 8.595-16.59 15.478-30.03 15.478-19.4 0-36.41-15.478-33.05-42.839Zm-30.65 0 .03-.316c1.96-15.941-7.54-26.427-20.36-26.427-12.81 0-25.38 10.64-27.32 26.427l-.04.316c-1.94 15.787 8.02 26.427 20.84 26.427 12.97 0 24.85-10.169 26.85-26.427Zm-61.05-41.434h18.92l-1.69 13.757c7.15-8.595 16.59-15.478 30.04-15.478 19.39 0 36.43 15.324 33.04 42.839l-.04.316c-3.35 27.361-24.02 42.839-43.55 42.839-13.77 0-21.51-6.883-26.36-14.545l-4.65 37.839h-18.92l13.21-107.567Zm-100.43 52.53 6.46-52.53h18.91l-5.76 46.905c-1.57 12.816 3.96 20.015 15.22 20.015 10.95 0 19.52-7.508 21.09-20.332l5.73-46.588h19.07l-10.13 82.552h-19.08l1.57-12.824c-6.26 7.824-14.76 14.545-27.58 14.545-18.6 0-27.85-12.508-25.5-31.743Zm-34.08-48.472c1.06-8.595-5.17-13.904-17.51-13.904H1273l-3.57 29.074h26.26c12.36 0 21.24-4.846 22.47-14.853l.03-.317Zm-20.27 31.427h-30.49l-3.68 30.023h31.89c13.14 0 21.74-5.155 22.95-15.008l.04-.308c1.13-9.229-5.54-14.707-20.71-14.707Zm-41.74-62.375h49.09c12.51 0 21.94 3.433 27.42 9.691 4.26 4.845 6.03 10.787 5.13 18.132l-.04.317c-1.62 13.132-9.99 20.169-18.64 24.39 12.29 4.382 20.3 11.728 18.47 26.573l-.03.317c-2.4 19.552-19.79 30.022-44.19 30.022h-50.65l13.44-109.442Zm-101.15 43.147h-10.48l1.95-15.794h10.48l.74-6.096c1.12-9.058 4.31-15.949 9.22-20.324 4.92-4.382 11.29-6.566 19.41-6.566 6.57 0 10.99.934 15.06 2.184l-1.96 15.956c-3.6-1.25-6.78-2.037-10.85-2.037-7.19 0-11.42 3.912-12.48 12.508l-.55 4.537h21.88l-1.92 15.632h-21.58l-8.14 66.295h-18.92l8.14-66.295Zm-41.59 25.486.04-.309c1.78-14.544-7.23-26.581-22.07-26.581-15.17 0-26.31 11.882-28.09 26.265l-.04.316c-1.76 14.382 7.24 26.427 21.94 26.427 15.32 0 26.47-11.882 28.22-26.118Zm-69.11 0 .03-.309c2.9-23.611 24.06-43.155 49.39-43.155 25.33 0 41.58 19.228 38.68 42.839l-.04.316c-2.87 23.449-24.03 42.993-49.52 42.993-25.17 0-41.42-19.228-38.54-42.684Zm-97.117 17.978 5.339-43.464h-10.478l1.998-16.257h10.471l2.793-22.677h18.912l-2.786 22.677h22.199l-1.991 16.257h-22.206l-4.969 40.493c-.903 7.353 2.476 10.324 8.896 10.324 4.221 0 8.094-.934 12.076-2.816l-1.899 15.478c-5.023 2.662-10.377 4.228-17.561 4.228-13.919 0-23.017-6.095-20.794-24.243Zm-57.245-59.721h18.92l-2.284 18.603c6.682-12.354 17.253-20.787 31.72-20.17l-2.461 20.015h-1.088c-16.582 0-29.467 10.787-32.16 32.677l-3.858 31.427h-18.92l10.131-82.552ZM846.42 706.43l.038-.316c1.952-15.941-8.017-26.427-20.678-26.427-12.978 0-24.992 10.007-27.014 26.427l-.038.316c-1.96 15.941 7.708 26.427 20.524 26.427 12.67 0 25.231-10.64 27.168-26.427Zm-66.766 0 .039-.316c3.364-27.361 23.865-42.839 43.564-42.839 13.603 0 21.38 6.721 26.373 14.544l1.566-12.823h18.912l-10.131 82.552h-18.92l1.69-13.757c-7.16 8.595-16.597 15.478-30.046 15.478-19.382 0-36.403-15.478-33.047-42.839Zm-48.008-11.412c14.536 0 24.606-8.132 26.01-19.552l.039-.309c1.574-12.823-6.829-19.544-21.211-19.544h-22.361l-4.838 39.405h22.361Zm-34.599-56.912h43.148c25.648 0 39.806 14.536 37.098 36.581l-.039.316c-3.017 24.544-24.289 37.368-48.371 37.368h-21.728l-4.321 35.177h-19.228l13.441-109.442Zm621.683-190.089.07-.625c5.77-46.913 46.88-86.318 96.6-86.318 30.95 0 48.93 11.574 62.48 28.464L1451 414.869c-10.07-12.199-21.23-20.648-39.98-20.648-27.53 0-50.77 23.765-54.3 52.538l-.08.633c-3.61 29.382 13.84 52.838 42.92 52.838 17.83 0 31.96-8.125 45.34-20.316l20.06 22.515c-18.49 18.133-39.14 30.949-71.34 30.949-49.1 0-80.65-38.456-74.89-85.361Zm-51.04-144.789h40.66l-4.42 35.956h-40.64l4.4-35.956Zm-5.95 61.287h37.84l-20.28 165.113h-37.83l20.27-165.113Zm-185.15 0h37.84l-3.11 25.331c12.51-15.324 29.48-28.772 55.12-28.772 37.22 0 55.72 25.015 51.04 63.17l-12.94 105.384h-37.84l11.53-93.81c3.15-25.648-7.88-40.347-30.4-40.347-21.89 0-39.08 15.332-42.23 40.972l-11.45 93.185h-37.83l20.27-165.113Zm-70.34-61.287h40.64l-4.41 35.956h-40.65l4.42-35.956Zm-5.96 61.287h37.83l-20.28 165.113h-37.827l20.277-165.113Zm-70.747-63.162h37.831L939.35 529.628h-37.839l28.032-228.275Zm-242.04 119.45.077-.625c7.639-62.229 60.493-113.201 126.78-113.201 40.347 0 63.001 14.074 81.503 34.082l-28.201 28.464c-15.517-16.258-32.94-27.207-57.955-27.207-41.581 0-76.449 34.398-81.711 77.237l-.077.625c-5.255 42.846 20.817 77.552 62.707 77.552 26.905 0 45.4-10.632 66.318-28.14l21.628 25.015c-25.74 23.765-52.607 38.773-93.571 38.773-63.795 0-105.222-49.714-97.498-112.575ZM1880.17 206.701l20.05-25.639c16.48 13.441 34.71 20.323 51.6 20.323 16.26 0 26.48-6.882 27.83-17.824l.08-.625c1.57-12.823-15.41-17.198-34.06-23.14-23.54-6.882-49.52-16.89-45.64-48.471l.07-.625c3.84-31.272 32.13-50.346 64.97-50.346 20.63 0 42.27 7.191 58.36 18.765l-18.31 26.898c-14.76-9.7-30.91-15.648-44.67-15.648-14.71 0-23.99 6.882-25.14 16.273l-.08.617c-1.49 12.199 15.71 17.199 34.33 23.456 23.16 7.5 49.02 18.449 45.37 48.155l-.07.625c-4.26 34.714-33.26 51.913-67.67 51.913-23.44 0-48.37-8.441-67.02-24.707Zm-166.65-38.463 12.9-105.068h37.83l-11.52 93.81c-3.15 25.64 7.91 40.038 30.42 40.038 21.89 0 39.06-15.015 42.21-40.663l11.44-93.185h38.15l-20.26 165.105h-38.16l3.14-25.64c-12.54 15.633-29.52 29.089-55.16 29.089-37.21 0-55.72-25.023-50.99-63.486ZM1659.74 0h37.84l-28.03 228.275h-37.84L1659.74 0Zm-127.73 123.208c29.08 0 49.22-16.258 52.02-39.081l.08-.625c3.15-25.656-13.65-39.097-42.43-39.097h-44.72l-9.67 78.803h44.72Zm-69.2-113.833h86.31c51.28 0 79.6 29.089 74.18 73.185l-.07.625c-6.03 49.097-48.57 74.737-96.74 74.737h-43.46l-8.64 70.353h-38.46l26.88-218.9ZM1320.5 134.157c.49-24.398-11.55-43.472-36.57-43.472-23.14 0-41.59 17.832-48.18 43.472h84.75Zm-123.77 12.191.08-.625c5.79-47.214 44.02-85.994 91.24-85.994 52.54 0 74.05 41.28 68.21 88.81-.43 3.441-1.16 6.875-1.93 10.632h-121.34c.78 26.898 18 41.906 42.39 41.906 18.45 0 32.44-6.883 47.13-19.707l19.79 19.707c-17.94 18.765-41.01 30.964-71.34 30.964-47.84 0-80.49-34.714-74.23-85.693Zm-93.31-83.178h37.85l-4.57 37.206c13.34-24.698 34.49-41.589 63.42-40.33l-4.91 40.022h-2.18c-33.16 0-58.95 21.581-64.32 65.361l-7.71 62.846h-37.85l20.27-165.105Zm-83.99 82.869.07-.633c3.91-31.89-16.03-52.846-41.362-52.846-25.949 0-49.991 20.015-54.019 52.846l-.077.633c-3.92 31.898 15.408 52.846 41.048 52.846 25.332 0 50.45-21.265 54.34-52.846Zm-133.528 0 .077-.633c6.721-54.72 47.723-85.677 87.128-85.677 27.203 0 42.753 13.449 52.713 29.081l3.15-25.64h37.83l-20.27 165.105h-37.83l3.37-27.515c-14.303 17.199-33.184 30.964-60.081 30.964-38.773 0-72.807-30.964-66.087-85.685Zm-204.086-26.581.07-.625c7.646-62.237 60.492-113.2 126.788-113.2 40.338 0 63.008 14.066 81.495 34.08L861.975 68.17c-15.509-16.257-32.931-27.199-57.946-27.199-41.597 0-76.465 34.39-81.727 77.237l-.078.625c-5.262 42.838 20.803 77.545 62.715 77.545 26.883 0 45.401-10.625 66.311-28.14l21.628 25.015c-25.748 23.772-52.6 38.788-93.563 38.788-63.788 0-105.215-49.73-97.499-112.583ZM0 8.835v363.558h150.777c49.003 0 69.906-33.78 77.784-46.496 2.5-4.036 4.135-6.659 7.299-8.765 3.387-2.223 7.569-2.948 11.481-1.96a14.475 14.475 0 0 1 9.213 7.129l21.574 39.807 63.741-274.664c2.091-8.58 10.115-14.382 18.942-13.857a18.158 18.158 0 0 1 16.844 16.342l29.722 328.158 37.144-79.359a14.492 14.492 0 0 1 10.502-7.615c4.49-.679 9.104.702 12.353 3.85 2.708 2.608 4.413 5.887 6.99 10.864 4.831 9.305 13.812 26.566 25.023 26.566h47.407V8.835H0Zm499.389 392.469h47.407V555.63H0V401.304h150.777c37.769 0 68.579-14.961 91.603-44.466l28.225 52.074c2.824 5.209 8.711 8.195 14.56 7.454 5.887-.764 10.786-5.154 12.198-10.926l57.978-253.691 27.191 308.736c.717 8.581 8.024 15.301 16.643 15.301 6.396 0 12.129-3.557 14.969-9.298l43.926-91.132c11.659 17.214 25.555 25.948 41.319 25.948Z" fill="#0079C8"/><path d="M474.366 345.814c-2.577-4.977-4.282-8.249-6.99-10.864-3.249-3.141-7.863-4.53-12.353-3.851a14.486 14.486 0 0 0-10.502 7.624l-37.144 79.35-29.722-328.157a18.157 18.157 0 0 0-16.844-16.343c-8.827-.524-16.851 5.278-18.942 13.858l-63.741 274.671-21.574-39.806a14.445 14.445 0 0 0-9.213-7.13c-3.912-.988-8.094-.262-11.481 1.96-3.164 2.099-4.799 4.722-7.299 8.757-7.878 12.716-28.781 46.504-77.784 46.504H0v28.904h150.777c37.769 0 68.579-14.953 91.603-44.467l28.225 52.075c2.824 5.208 8.711 8.194 14.56 7.453 5.887-.763 10.786-5.154 12.198-10.925l57.978-253.692 27.191 308.737c.717 8.58 8.024 15.308 16.643 15.308 6.396 0 12.129-3.564 14.969-9.297l43.926-91.141c11.659 17.215 25.555 25.949 41.319 25.949l47.407.008v-28.912h-47.407c-11.211 0-20.192-17.268-25.023-26.573Z" fill="#fff"/></svg>